<svg xmlns="http://www.w3.org/2000/svg" viewBox="0 0 381.5 72.85"><defs><style>.cls-1{fill:#f3f3f3;}</style></defs><g id="Layer_2" data-name="Layer 2"><g id="Layer_1-2" data-name="Layer 1"><g id="_Radial_Repeat_" data-name="&lt;Radial Repeat&gt;"><circle class="cls-1" cx="66.61" cy="37.33" r="8.03"/><circle class="cls-1" cx="45.3" cy="37.1" r="6.25" transform="translate(-9.02 15.24) rotate(-17.4)"/><circle class="cls-1" cx="23.99" cy="36.88" r="4.46" transform="translate(-9.93 8.86) rotate(-17.4)"/><circle class="cls-1" cx="2.68" cy="36.66" r="2.68" transform="translate(-10.84 2.48) rotate(-17.4)"/></g><g id="_Radial_Repeat_2" data-name="&lt;Radial Repeat&gt;"><circle class="cls-1" cx="44.2" cy="67.5" r="5.35"/></g><g id="_Radial_Repeat_3" data-name="&lt;Radial Repeat&gt;"><circle class="cls-1" cx="60.31" cy="56.05" r="6.69" transform="translate(-14 20.59) rotate(-17.4)"/></g><g id="_Radial_Repeat_4" data-name="&lt;Radial Repeat&gt;"><circle class="cls-1" cx="60.71" cy="18.48" r="8.03"/></g><g id="_Radial_Repeat_5" data-name="&lt;Radial Repeat&gt;"><circle class="cls-1" cx="44.84" cy="6.69" r="6.69" transform="translate(0.05 13.71) rotate(-17.4)"/></g><g id="_Radial_Repeat_6" data-name="&lt;Radial Repeat&gt;"><circle class="cls-1" cx="25.09" cy="6.49" r="5.35"/></g><g id="_Radial_Repeat_7" data-name="&lt;Radial Repeat&gt;"><circle class="cls-1" cx="8.98" cy="17.93" r="4.02" transform="translate(-4.95 3.51) rotate(-17.4)"/></g><g id="_Radial_Repeat_8" data-name="&lt;Radial Repeat&gt;"><circle class="cls-1" cx="8.59" cy="55.51" r="2.68" transform="matrix(0.95, -0.3, 0.3, 0.95, -16.2, 5.11)"/></g><g id="_Radial_Repeat_9" data-name="&lt;Radial Repeat&gt;"><circle class="cls-1" cx="24.45" cy="67.29" r="4.02" transform="matrix(0.95, -0.3, 0.3, 0.95, -19, 10.39)"/></g><path class="cls-1" d="M105.05,53.32a18.42,18.42,0,0,1-9.89-9.89,18.35,18.35,0,0,1,0-14.25,19,19,0,0,1,4-6,18.51,18.51,0,0,1,5.92-4,18.42,18.42,0,0,1,14.23,0,18.42,18.42,0,0,1,10,9.89,17.79,17.79,0,0,1,1.46,7.09,1.7,1.7,0,0,1-.44,1.19,1.54,1.54,0,0,1-1.19.47H97.39a14.26,14.26,0,0,0,1.47,5.29,15.55,15.55,0,0,0,3.26,4.39,14.88,14.88,0,0,0,4.61,2.93,14.43,14.43,0,0,0,5.44,1,15.2,15.2,0,0,0,4.12-.45,14,14,0,0,0,3.56-1.55,2.8,2.8,0,0,1,1.13-.31,1.4,1.4,0,0,1,1.1.55,1.91,1.91,0,0,1,.45,1.23,1.67,1.67,0,0,1-.19.76,1.39,1.39,0,0,1-.6.6,15.65,15.65,0,0,1-4.2,1.82,21.34,21.34,0,0,1-5.37.56A18,18,0,0,1,105.05,53.32ZM127.26,35a14.65,14.65,0,0,0-1.42-5.43,14.86,14.86,0,0,0-3.31-4.48,15.11,15.11,0,0,0-4.72-3,14.87,14.87,0,0,0-5.6-1.06,14.43,14.43,0,0,0-5.59,1.08,15,15,0,0,0-4.66,3,15.68,15.68,0,0,0-3.23,4.48A14.61,14.61,0,0,0,97.31,35Z"/><path class="cls-1" d="M145.39,53.34a18.41,18.41,0,0,1-11.14-17,18.75,18.75,0,0,1,1.4-7.18,18.19,18.19,0,0,1,9.74-9.93,18.43,18.43,0,0,1,14.14,0,18.39,18.39,0,0,1,5.84,4,18.08,18.08,0,0,1,3.87,5.92,18.91,18.91,0,0,1,1.38,7.2V52.67a1.68,1.68,0,0,1-1.74,1.74,1.5,1.5,0,0,1-1.17-.49,1.78,1.78,0,0,1-.45-1.25l0-5.55a18.2,18.2,0,0,1-6.31,5.52,18.18,18.18,0,0,1-15.52.7Zm12.91-3.1a14.93,14.93,0,0,0,4.76-3.31,14.23,14.23,0,0,0,3.1-4.8,15.56,15.56,0,0,0,1.1-5.79,15.77,15.77,0,0,0-1.1-5.86,14.7,14.7,0,0,0-3.1-4.84,14.79,14.79,0,0,0-10.62-4.42,14.34,14.34,0,0,0-5.77,1.17,14.94,14.94,0,0,0-4.74,3.25,15.39,15.39,0,0,0,0,21.29,15,15,0,0,0,4.74,3.31,14.31,14.31,0,0,0,5.81,1.19A14.55,14.55,0,0,0,158.3,50.24Z"/><path class="cls-1" d="M178.13,53.83a1.61,1.61,0,0,1-.51-1.23V37.06a18.86,18.86,0,0,1,1.47-7.39,19.56,19.56,0,0,1,4.12-6.18,19.13,19.13,0,0,1,6.13-4.18,18.27,18.27,0,0,1,7.33-1.49h.08l.07,0a.5.5,0,0,1,.23,0,1.74,1.74,0,0,1,1.28.45,1.66,1.66,0,0,1,.46,1.25,1.61,1.61,0,0,1-.49,1.19,1.76,1.76,0,0,1-1.25.47h-.38a15,15,0,0,0-6,1.23,16.1,16.1,0,0,0-8.49,8.53,15.4,15.4,0,0,0-1.25,6.12V52.6a1.76,1.76,0,0,1-.43,1.23,1.46,1.46,0,0,1-1.12.47A1.8,1.8,0,0,1,178.13,53.83Z"/><path class="cls-1" d="M203.13,53.83a1.67,1.67,0,0,1-.49-1.23V35.47a18.94,18.94,0,0,1,1.25-6.86A16.93,16.93,0,0,1,207.44,23a16.61,16.61,0,0,1,12.1-5.14,16.19,16.19,0,0,1,6.66,1.36A15.87,15.87,0,0,1,231.49,23a17.4,17.4,0,0,1,3.4,5.65,19.35,19.35,0,0,1,1.21,6.86V52.6a1.73,1.73,0,0,1-.45,1.23,1.59,1.59,0,0,1-1.17.47,1.68,1.68,0,0,1-1.21-.47,1.64,1.64,0,0,1-.5-1.23v-17a16.35,16.35,0,0,0-.94-5.58,13.73,13.73,0,0,0-2.72-4.59,12.68,12.68,0,0,0-9.57-4.2,12.94,12.94,0,0,0-5.35,1.1,13.33,13.33,0,0,0-4.33,3.06A14.34,14.34,0,0,0,207,30a15.27,15.27,0,0,0-1,5.58V52.6a1.69,1.69,0,0,1-.46,1.23,1.6,1.6,0,0,1-1.21.47A1.72,1.72,0,0,1,203.13,53.83Z"/><path class="cls-1" d="M244.68,53.09a3.92,3.92,0,0,1-1.28-3v-13a18.75,18.75,0,0,1,1.51-7.44,19.59,19.59,0,0,1,10.4-10.42,18.65,18.65,0,0,1,7.41-1.49h.07A4.33,4.33,0,0,1,266,19a4.06,4.06,0,0,1,1.15,3,4,4,0,0,1-.34,1.64,4.2,4.2,0,0,1-4,2.55h-.19a10.91,10.91,0,0,0-4.06.87,11.22,11.22,0,0,0-3.46,2.31,11.47,11.47,0,0,0-2.38,3.44,10.41,10.41,0,0,0-.91,4.12V50.14a4.16,4.16,0,0,1-1.17,3,4.27,4.27,0,0,1-1.32.89,4.14,4.14,0,0,1-1.59.32A4.27,4.27,0,0,1,244.68,53.09Z"/><path class="cls-1" d="M279.58,53.28a18.6,18.6,0,0,1-9.89-9.89,18.49,18.49,0,0,1,0-14.21,19,19,0,0,1,4-6,18.64,18.64,0,0,1,5.9-4,18.36,18.36,0,0,1,14.16,0,18.58,18.58,0,0,1,5.91,4,19,19,0,0,1,4,5.94A18.26,18.26,0,0,1,305,36.3v14a4.11,4.11,0,0,1-1.24,3,4,4,0,0,1-3,1.29,4,4,0,0,1-4-3,18.18,18.18,0,0,1-17.2,1.63Zm10.94-7.73a10.06,10.06,0,0,0,3.24-2.18,10.17,10.17,0,0,0,2.11-3.21,10.16,10.16,0,0,0,0-7.71,10.33,10.33,0,0,0-2.11-3.22,10.19,10.19,0,0,0-7.11-2.91,9.92,9.92,0,0,0-7,2.91,10.13,10.13,0,0,0-2.16,10.93,9.82,9.82,0,0,0,2.16,3.21,9.55,9.55,0,0,0,3.17,2.18,10.09,10.09,0,0,0,7.73,0Z"/><path class="cls-1" d="M324.08,53.68a4.08,4.08,0,0,1-1.59-1.84l-12-28.09a4.23,4.23,0,0,1-.42-1.7,4.25,4.25,0,0,1,4.24-4.23,4,4,0,0,1,2.24.68,4.24,4.24,0,0,1,1.57,1.81l8.25,20,8.2-19.92a4.25,4.25,0,0,1,3.86-2.53,4.13,4.13,0,0,1,3,1.28,4.87,4.87,0,0,1,.83,1.36,4.19,4.19,0,0,1,.3,1.55,4.62,4.62,0,0,1-.37,1.78L330.24,51.84a4.72,4.72,0,0,1-1.61,1.91,4,4,0,0,1-2.17.59A4.39,4.39,0,0,1,324.08,53.68Z"/><path class="cls-1" d="M355.8,53.28a19,19,0,0,1-6-4,18.24,18.24,0,0,1-4-5.9,17.86,17.86,0,0,1-1.44-7.11,18.37,18.37,0,0,1,5.44-13.08,19,19,0,0,1,6-4,18.32,18.32,0,0,1,7.14-1.43,18.09,18.09,0,0,1,7.07,1.4A18.64,18.64,0,0,1,381.5,36.08,3.82,3.82,0,0,1,380.35,39a4.14,4.14,0,0,1-3,1.09H353.75a9.56,9.56,0,0,0,3.52,4.73,9.24,9.24,0,0,0,5.67,1.85,11.22,11.22,0,0,0,2.76-.28,8.31,8.31,0,0,0,2.12-.89,5,5,0,0,1,2.46-.79,4,4,0,0,1,3,1.32,5,5,0,0,1,.85,1.4A4.37,4.37,0,0,1,374.4,49a3.66,3.66,0,0,1-.83,2.31,6.85,6.85,0,0,1-2.35,1.82,14.13,14.13,0,0,1-3.65,1.15,25.68,25.68,0,0,1-4.63.4A18.15,18.15,0,0,1,355.8,53.28Zm17.09-20.23a10.5,10.5,0,0,0-1.37-2.89,9.89,9.89,0,0,0-2.19-2.33,10.06,10.06,0,0,0-6.24-2,9.82,9.82,0,0,0-6.16,2.08,9.36,9.36,0,0,0-2.14,2.29,9.92,9.92,0,0,0-1.3,2.85Z"/></g></g></svg>