<svg width="105" height="32" viewBox="0 0 105 32" fill="none" xmlns="http://www.w3.org/2000/svg">
<path d="M16 6C14.9 6 14 6.9 14 8V11.17L16 13.17L18 11.17V8C18 7.45 17.78 6.95 17.41 6.58C17.05 6.22 16.55 6 16 6Z" stroke="white" stroke-width="1.5" stroke-miterlimit="10" stroke-linecap="round" stroke-linejoin="round"/>
<path d="M14 20.83V24C14 25.1 14.9 26 16 26C17.1 26 18 25.1 18 24V20.83L16 18.83L14 20.83Z" stroke="white" stroke-width="1.5" stroke-miterlimit="10" stroke-linecap="round" stroke-linejoin="round"/>
<path d="M11.17 14H8C6.9 14 6 14.9 6 16C6 17.1 6.9 18 8 18H11.17L13.17 16L11.17 14Z" stroke="white" stroke-width="1.5" stroke-miterlimit="10" stroke-linecap="round" stroke-linejoin="round"/>
<path d="M24.0001 14H20.8301L18.8301 16L20.8301 18H24.0001C24.5501 18 25.0501 17.78 25.4101 17.41C25.7801 17.05 26.0001 16.55 26.0001 16C26.0001 14.9 25.1001 14 24.0001 14Z" stroke="white" stroke-width="1.5" stroke-miterlimit="10" stroke-linecap="round" stroke-linejoin="round"/>
<path d="M23.07 20.24L18.83 16L16 18.83L20.24 23.07C21.02 23.85 22.29 23.85 23.07 23.07C23.85 22.29 23.85 21.02 23.07 20.24Z" stroke="white" stroke-width="1.5" stroke-miterlimit="10" stroke-linecap="round" stroke-linejoin="round"/>
<path d="M11.76 8.92997C11.37 8.53997 10.86 8.33997 10.34 8.33997C9.82997 8.33997 9.31997 8.53997 8.92997 8.92997C8.14997 9.70997 8.14997 10.98 8.92997 11.76L13.17 16L16 13.17L11.76 8.92997Z" stroke="white" stroke-width="1.5" stroke-miterlimit="10" stroke-linecap="round" stroke-linejoin="round"/>
<path d="M8.92997 23.07C8.14997 22.29 8.14997 21.02 8.92997 20.24L20.24 8.92997C21.02 8.14997 22.29 8.14997 23.07 8.92997C23.85 9.70997 23.85 10.98 23.07 11.76L11.76 23.07C10.98 23.85 9.70997 23.85 8.92997 23.07Z" stroke="white" stroke-width="1.5" stroke-miterlimit="10" stroke-linecap="round" stroke-linejoin="round"/>
<path d="M37.446 23.2045C36.5597 23.2045 35.7884 22.9851 35.1321 22.5462C34.4759 22.1072 33.9688 21.5064 33.6108 20.7436C33.2528 19.9808 33.0739 19.1115 33.0739 18.1357C33.0739 17.1555 33.2528 16.282 33.6108 15.5149C33.973 14.7479 34.4695 14.1428 35.1001 13.6996C35.7308 13.2564 36.451 13.0348 37.2607 13.0348C37.8104 13.0348 38.3303 13.1456 38.8203 13.3672C39.3146 13.5845 39.7493 13.8999 40.1243 14.3132C40.5036 14.7266 40.7997 15.2251 41.0128 15.8089C41.2301 16.3928 41.3388 17.049 41.3388 17.7777V18.2635H33.5661V17.554H40.5589C40.5589 16.8423 40.4141 16.201 40.1243 15.63C39.8345 15.0589 39.4403 14.6051 38.9418 14.2685C38.4432 13.9318 37.8828 13.7635 37.2607 13.7635C36.6087 13.7635 36.027 13.9467 35.5156 14.3132C35.0085 14.6754 34.6058 15.1655 34.3075 15.7834C34.0135 16.4013 33.8601 17.0916 33.8473 17.8544V18.174C33.8473 18.9922 33.9901 19.7273 34.2756 20.3793C34.5653 21.027 34.9787 21.5405 35.5156 21.9197C36.0526 22.2947 36.696 22.4822 37.446 22.4822C37.983 22.4822 38.4411 22.3928 38.8203 22.2138C39.2038 22.0305 39.517 21.8089 39.7599 21.549C40.0028 21.2891 40.1861 21.0376 40.3097 20.7947L41.0192 21.0824C40.87 21.4105 40.6378 21.7386 40.3224 22.0668C40.0114 22.3906 39.6151 22.6612 39.1335 22.8786C38.6563 23.0959 38.0938 23.2045 37.446 23.2045ZM45.725 23.2109C45.1582 23.2109 44.6384 23.098 44.1653 22.8722C43.6966 22.6463 43.3195 22.3161 43.0339 21.8814C42.7527 21.4467 42.6121 20.9183 42.6121 20.2962C42.6121 19.8871 42.6845 19.527 42.8294 19.2159C42.9743 18.9048 43.198 18.6364 43.5006 18.4105C43.8031 18.1847 44.1909 17.9993 44.6639 17.8544C45.1369 17.7053 45.7016 17.5902 46.3578 17.5092C46.8564 17.4496 47.3017 17.392 47.6938 17.3366C48.0858 17.277 48.3926 17.1854 48.6142 17.0618C48.8401 16.9382 48.953 16.7507 48.953 16.4993V16.0902C48.953 15.3743 48.7271 14.8054 48.2754 14.3835C47.8237 13.9616 47.2016 13.7507 46.4089 13.7507C45.7058 13.7507 45.1135 13.9062 44.632 14.2173C44.1547 14.5241 43.8202 14.9205 43.6284 15.4062L42.8933 15.1314C43.0808 14.6626 43.3514 14.2727 43.7051 13.9616C44.0631 13.6506 44.4722 13.4183 44.9324 13.2649C45.3969 13.1115 45.8827 13.0348 46.3898 13.0348C46.8287 13.0348 47.2463 13.0966 47.6426 13.2202C48.0432 13.3438 48.399 13.5312 48.7101 13.7827C49.0254 14.0341 49.2747 14.3558 49.458 14.7479C49.6412 15.1357 49.7328 15.6001 49.7328 16.1413V23H48.953V21.2294H48.8955C48.725 21.5959 48.4906 21.9304 48.1923 22.233C47.8983 22.5312 47.5425 22.7699 47.1249 22.9489C46.7115 23.1236 46.2449 23.2109 45.725 23.2109ZM45.8017 22.4886C46.4153 22.4886 46.9587 22.3395 47.4317 22.0412C47.9089 21.7386 48.2818 21.3253 48.5503 20.8011C48.8188 20.277 48.953 19.6825 48.953 19.0178V17.5732C48.855 17.6584 48.7122 17.7351 48.5247 17.8033C48.3415 17.8672 48.1327 17.9247 47.8983 17.9759C47.6682 18.0227 47.4253 18.0653 47.1696 18.1037C46.9182 18.1378 46.6732 18.1697 46.4345 18.1996C45.7186 18.2848 45.1348 18.4169 44.6831 18.5959C44.2357 18.7706 43.9075 19.0007 43.6987 19.2862C43.4942 19.5717 43.3919 19.9169 43.3919 20.3217C43.3919 20.9908 43.622 21.5192 44.0822 21.907C44.5425 22.2947 45.1156 22.4886 45.8017 22.4886ZM52.1023 23V13.1818H52.863V14.7159H52.9333C53.1464 14.2131 53.5065 13.8104 54.0136 13.5078C54.5207 13.201 55.0981 13.0476 55.7458 13.0476C55.814 13.0476 55.8822 13.0476 55.9504 13.0476C56.0185 13.0476 56.0825 13.0497 56.1421 13.054V13.8402C56.091 13.8359 56.0292 13.8295 55.9567 13.821C55.8886 13.8082 55.8033 13.8018 55.7011 13.8018C55.1556 13.8018 54.6698 13.919 54.2437 14.1534C53.8218 14.3878 53.4894 14.7116 53.2465 15.125C53.0036 15.5341 52.8822 16.0028 52.8822 16.5312V23H52.1023ZM58.1169 16.6335V23H57.3371V13.1818H58.0978V14.7351H58.1745C58.4046 14.228 58.7732 13.821 59.2803 13.5142C59.7874 13.2074 60.3904 13.054 61.0892 13.054C61.7498 13.054 62.3293 13.1946 62.8279 13.4759C63.3307 13.7571 63.7228 14.1577 64.004 14.6776C64.2895 15.1932 64.4323 15.8089 64.4323 16.5249V23H63.6524V16.5568C63.6524 15.7216 63.4032 15.0504 62.9046 14.5433C62.4103 14.032 61.7561 13.7763 60.9422 13.7763C60.3968 13.7763 59.911 13.8956 59.4848 14.1342C59.0587 14.3729 58.7242 14.7074 58.4813 15.1378C58.2384 15.5639 58.1169 16.0625 58.1169 16.6335ZM66.2425 23V13.1818H68.8824V14.8949H68.9847C69.1637 14.2855 69.4641 13.8253 69.886 13.5142C70.3078 13.1989 70.7936 13.0412 71.3434 13.0412C71.4797 13.0412 71.6267 13.0497 71.7844 13.0668C71.9421 13.0838 72.0806 13.1072 72.1999 13.1371V15.5533C72.0721 15.5149 71.8952 15.4808 71.6694 15.451C71.4435 15.4212 71.2368 15.4062 71.0493 15.4062C70.6488 15.4062 70.2908 15.4936 69.9755 15.6683C69.6644 15.8388 69.4172 16.0774 69.234 16.3842C69.055 16.6911 68.9655 17.0447 68.9655 17.4453V23H66.2425ZM75.2262 23.1854C74.5998 23.1854 74.0415 23.0767 73.5515 22.8594C73.0614 22.6378 72.6737 22.3118 72.3881 21.8814C72.1069 21.4467 71.9663 20.9055 71.9663 20.2578C71.9663 19.7124 72.0664 19.2543 72.2667 18.8835C72.467 18.5128 72.7397 18.2145 73.0849 17.9886C73.43 17.7628 73.8221 17.5923 74.261 17.4773C74.7042 17.3622 75.1687 17.2812 75.6545 17.2344C76.2255 17.1747 76.6857 17.1193 77.0352 17.0682C77.3846 17.0128 77.6381 16.9318 77.7958 16.8253C77.9535 16.7187 78.0323 16.5611 78.0323 16.3523V16.3139C78.0323 15.9091 77.9045 15.5959 77.6488 15.3743C77.3974 15.1527 77.0394 15.0419 76.5749 15.0419C76.0849 15.0419 75.695 15.1506 75.4052 15.3679C75.1154 15.581 74.9237 15.8494 74.8299 16.1733L72.3114 15.9688C72.4393 15.3722 72.6907 14.8565 73.0657 14.4219C73.4407 13.983 73.9244 13.6463 74.5167 13.4119C75.1133 13.1733 75.8036 13.054 76.5877 13.054C77.1332 13.054 77.6552 13.1179 78.1538 13.2457C78.6566 13.3736 79.1019 13.5717 79.4897 13.8402C79.8817 14.1087 80.1907 14.4538 80.4165 14.8757C80.6424 15.2933 80.7553 15.794 80.7553 16.3778V23H78.1729V21.6385H78.0962C77.9386 21.9453 77.7276 22.2159 77.4634 22.4503C77.1992 22.6804 76.8817 22.8615 76.511 22.9936C76.1403 23.1214 75.712 23.1854 75.2262 23.1854ZM76.006 21.3061C76.4066 21.3061 76.7603 21.2273 77.0671 21.0696C77.3739 20.9077 77.6147 20.6903 77.7894 20.4176C77.9641 20.1449 78.0515 19.8359 78.0515 19.4908V18.4489C77.9663 18.5043 77.8491 18.5554 77.6999 18.6023C77.555 18.6449 77.391 18.6854 77.2077 18.7237C77.0245 18.7578 76.8413 18.7898 76.658 18.8196C76.4748 18.8452 76.3086 18.8686 76.1594 18.8899C75.8398 18.9368 75.5607 19.0114 75.3221 19.1136C75.0835 19.2159 74.8981 19.3544 74.766 19.5291C74.6339 19.6996 74.5678 19.9126 74.5678 20.1683C74.5678 20.5391 74.7021 20.8224 74.9705 21.0185C75.2433 21.2102 75.5884 21.3061 76.006 21.3061ZM90.7697 13.1818L87.3372 23H84.269L80.8365 13.1818H83.7129L85.752 20.2067H85.8543L87.8869 13.1818H90.7697ZM95.4212 23.1918C94.4113 23.1918 93.542 22.9872 92.8133 22.5781C92.0889 22.1648 91.5306 21.581 91.1386 20.8267C90.7465 20.0682 90.5505 19.1712 90.5505 18.1357C90.5505 17.1257 90.7465 16.2393 91.1386 15.4766C91.5306 14.7138 92.0825 14.1193 92.7941 13.6932C93.51 13.267 94.3495 13.054 95.3126 13.054C95.9603 13.054 96.5633 13.1584 97.1215 13.3672C97.684 13.5717 98.1741 13.8807 98.5917 14.294C99.0136 14.7074 99.3417 15.2273 99.5761 15.8537C99.8104 16.4759 99.9276 17.2045 99.9276 18.0398V18.7876H91.6371V17.1001H97.3644C97.3644 16.7081 97.2792 16.3608 97.1087 16.0582C96.9383 15.7557 96.7018 15.5192 96.3992 15.3487C96.1009 15.174 95.7536 15.0866 95.3573 15.0866C94.944 15.0866 94.5775 15.1825 94.2579 15.3743C93.9425 15.5618 93.6954 15.8153 93.5164 16.1349C93.3374 16.4503 93.2458 16.8018 93.2415 17.1896V18.794C93.2415 19.2798 93.331 19.6996 93.51 20.0533C93.6933 20.407 93.9511 20.6797 94.2835 20.8714C94.6158 21.0632 95.01 21.1591 95.466 21.1591C95.7685 21.1591 96.0455 21.1165 96.2969 21.0312C96.5484 20.946 96.7636 20.8182 96.9425 20.6477C97.1215 20.4773 97.2579 20.2685 97.3516 20.0213L99.8701 20.1875C99.7423 20.7926 99.4802 21.321 99.0839 21.7727C98.6918 22.2202 98.1847 22.5696 97.5626 22.821C96.9447 23.0682 96.2309 23.1918 95.4212 23.1918Z" fill="white"/>
</svg>
